<?xml version='1.0' encoding='utf-8'?>
<mxfile host="app.diagrams.net"><diagram name="AWS ECS VPC Architecture"><mxGraphModel dx="1222" dy="717" grid="1" gridSize="10"><root><mxCell id="0" /><mxCell id="1" parent="0" /><mxCell id="2" value="VPC" style="swimlane;fillColor=#dae8fc" parent="1" vertex="1"><mxGeometry x="40" y="40" width="900" height="500" as="geometry" /></mxCell><mxCell id="3" value="Public Subnet" style="shape=rectangle;fillColor=#d5e8d4" parent="2" vertex="1"><mxGeometry x="60" y="80" width="380" height="180" as="geometry" /></mxCell><mxCell id="4" value="Private Subnet" style="shape=rectangle;fillColor=#fff2cc" parent="2" vertex="1"><mxGeometry x="480" y="80" width="380" height="180" as="geometry" /></mxCell><mxCell id="5" value="Internet Gateway" style="shape=cloud;fillColor=#f8cecc" parent="2" vertex="1"><mxGeometry x="100" y="280" width="160" height="60" as="geometry" /></mxCell><mxCell id="6" value="NAT Gateway" style="shape=cloud;fillColor=#f8cecc" parent="2" vertex="1"><mxGeometry x="520" y="280" width="160" height="60" as="geometry" /></mxCell><mxCell id="7" value="Application Load Balancer" style="shape=hexagon;fillColor=#e1d5e7" parent="2" vertex="1"><mxGeometry x="300" y="320" width="300" height="80" as="geometry" /></mxCell><mxCell id="8" value="ECS Cluster" style="shape=cylinder;fillColor=#dae8fc" parent="2" vertex="1"><mxGeometry x="300" y="420" width="300" height="80" as="geometry" /></mxCell><mxCell id="9" value="Service A (Task)" style="shape=rectangle;fillColor=#d5e8d4" parent="2" vertex="1"><mxGeometry x="330" y="510" width="120" height="50" as="geometry" /></mxCell><mxCell id="10" value="Service B (Task)" style="shape=rectangle;fillColor=#d5e8d4" parent="2" vertex="1"><mxGeometry x="450" y="510" width="120" height="50" as="geometry" /></mxCell></root></mxGraphModel></diagram></mxfile>